<svg id="Ebene_1" data-name="Ebene 1" xmlns="http://www.w3.org/2000/svg" viewBox="0 0 473.74 103.18"><defs><style>.cls-1{fill:#12120d;}.cls-2{fill:#88a5c9;}.cls-3{fill:#16428b;}</style></defs><path class="cls-1" d="M458.38,49.56h-10.8V37.07h10.8q4.14,0,6.09,1.56a5.7,5.7,0,0,1,1.95,4.74,5.58,5.58,0,0,1-1.92,4.69q-1.92,1.5-6.12,1.5m-10.8-30.31h9.78q4,0,6,1.44a5.12,5.12,0,0,1,2,4.44q0,5.94-8,5.94h-9.78Zm18.48,14.46a10.12,10.12,0,0,0,4.89-3.6,9.7,9.7,0,0,0,1.77-5.82A9.71,9.71,0,0,0,469,16.16q-3.75-2.91-10.35-2.91H440V55.56h19.2q6.78,0,10.65-3.06A10.19,10.19,0,0,0,473.74,44a10.74,10.74,0,0,0-2-6.6,10.23,10.23,0,0,0-5.67-3.72M410.37,21.65l7.74,18H402.63Zm22.26,33.91L413.49,13.25h-6.3L388.05,55.56h7.8l4.26-9.9h20.58l4.26,9.9Zm-49.57,0V49.2H363.32V13.25h-7.74V55.56ZM324.19,40.91,309.67,13.25h-6.12V55.56h6.84l-.06-27.67,11.22,20.83h5.16l11.16-21.13v28h6.84V13.25h-6.06Zm-48-19.26,7.74,18H268.44Zm22.26,33.91L279.3,13.25H273L253.85,55.56h7.81l4.26-9.9H286.5l4.26,9.9Zm-50.41,0V49.44H227.27V37.07h19.56V31H227.27V19.37H248V13.25H219.71V55.56ZM192.76,32.63H182.68V19.25h10.08q4.38,0,6.42,1.59t2,5.07a6.13,6.13,0,0,1-2,5.07q-2,1.65-6.42,1.65m10.74,10a8.76,8.76,0,0,0-5.4-4.74,13.1,13.1,0,0,0,7.71-4.11,11.79,11.79,0,0,0,2.73-8q0-6.06-3.75-9.27t-10.95-3.21H175.12V55.56h7.62v-17h5.88a8.15,8.15,0,0,1,3.78.78,6.16,6.16,0,0,1,2.52,2.7l7.26,13.51h8.4Zm-68.77,6.67V19.55h7.38q14.58,0,14.58,14.82T142.11,49.26ZM127,55.56h15.61Q153,55.56,158.7,50c3.82-3.73,5.73-8.92,5.73-15.61S162.52,22.5,158.7,18.8s-9.19-5.55-16.11-5.55H127Z"/><path class="cls-1" d="M364.44,92.81a12.07,12.07,0,0,0,4.46-.76,6.35,6.35,0,0,0,2.9-2.18,5.58,5.58,0,0,0,1-3.3,4.52,4.52,0,0,0-.88-2.87,6.38,6.38,0,0,0-2.54-1.87,23.72,23.72,0,0,0-4.31-1.33,12,12,0,0,1-3.56-1.22,2.09,2.09,0,0,1-1-1.88,2.63,2.63,0,0,1,1.18-2.29,5.56,5.56,0,0,1,3.21-.82,9.74,9.74,0,0,1,6.21,2.24l1.28-2.81a9.23,9.23,0,0,0-3.28-1.83,13.12,13.12,0,0,0-4.21-.67,10.36,10.36,0,0,0-4.27.82,6.66,6.66,0,0,0-2.87,2.28,5.67,5.67,0,0,0-1,3.32,4.9,4.9,0,0,0,.84,3A5.92,5.92,0,0,0,360,82.5a21.35,21.35,0,0,0,4.27,1.32A14.45,14.45,0,0,1,367.92,85,2,2,0,0,1,369,86.83,2.42,2.42,0,0,1,367.83,89a6.19,6.19,0,0,1-3.36.76,11.9,11.9,0,0,1-3.66-.54,10.16,10.16,0,0,1-3.21-1.7l-1.29,2.81a10.5,10.5,0,0,0,3.59,1.85,15.19,15.19,0,0,0,4.54.66m-11.83-.27V89.49H342.28V83.34H352v-3h-9.73V74.53h10.33v-3H338.52V92.54ZM331.29,71.48h-3.85V92.54h3.85Zm-19.44,9.68v2.75h4.54v5.28a15,15,0,0,1-4.07.57q-6.79,0-6.8-7.76,0-3.8,1.65-5.72a6.13,6.13,0,0,1,4.92-1.93,9.72,9.72,0,0,1,3.12.49,10.59,10.59,0,0,1,2.88,1.63l1.28-2.78a8.71,8.71,0,0,0-3.22-1.83,13.12,13.12,0,0,0-4.15-.64,11.25,11.25,0,0,0-5.51,1.29,8.89,8.89,0,0,0-3.62,3.74,13.72,13.72,0,0,0,0,11.53,8.84,8.84,0,0,0,3.66,3.73,11.73,11.73,0,0,0,5.65,1.3,20.6,20.6,0,0,0,4.16-.42,14.07,14.07,0,0,0,3.48-1.14V81.16Zm-24.37,8.57a5.57,5.57,0,0,1-4.56-2A8.89,8.89,0,0,1,281.3,82a8.84,8.84,0,0,1,1.62-5.72,5.57,5.57,0,0,1,4.56-2,5.5,5.5,0,0,1,4.52,2A8.78,8.78,0,0,1,293.63,82,8.83,8.83,0,0,1,292,87.73a5.51,5.51,0,0,1-4.52,2m0,3.08a10.32,10.32,0,0,0,5.3-1.32,8.81,8.81,0,0,0,3.48-3.76,14.1,14.1,0,0,0,0-11.45,8.67,8.67,0,0,0-3.46-3.75,11.54,11.54,0,0,0-10.68,0,8.72,8.72,0,0,0-3.48,3.75A12.79,12.79,0,0,0,277.44,82a12.6,12.6,0,0,0,1.23,5.73,8.69,8.69,0,0,0,3.48,3.76,10.35,10.35,0,0,0,5.33,1.32m-12-.27V89.37h-9.82V71.48h-3.86V92.54Zm-29.06-2.81a5.54,5.54,0,0,1-4.55-2A8.83,8.83,0,0,1,240.2,82a8.78,8.78,0,0,1,1.63-5.72,6.17,6.17,0,0,1,9.08,0A8.84,8.84,0,0,1,252.54,82a8.89,8.89,0,0,1-1.63,5.73,5.54,5.54,0,0,1-4.53,2m0,3.08a10.29,10.29,0,0,0,5.3-1.32,8.69,8.69,0,0,0,3.48-3.76A12.6,12.6,0,0,0,256.39,82a12.79,12.79,0,0,0-1.21-5.72,8.69,8.69,0,0,0-3.47-3.75,11.52,11.52,0,0,0-10.67,0,8.6,8.6,0,0,0-3.48,3.75,14.1,14.1,0,0,0,0,11.45,8.81,8.81,0,0,0,3.48,3.76,10.38,10.38,0,0,0,5.33,1.32m-19-6.66L216.07,71.48H213.2V92.54h3.59V77.85l11.29,14.69H231V71.48h-3.61Zm-24.55-5.86H192V71.48h-3.79V92.54H192V83.4h10.78v9.14h3.76V71.48h-3.76ZM176.05,92.81a12,12,0,0,0,4-.66,8.85,8.85,0,0,0,3.17-1.85l-1.28-2.81a10.68,10.68,0,0,1-2.84,1.66,8.47,8.47,0,0,1-3,.52,5.8,5.8,0,0,1-4.7-2,8.59,8.59,0,0,1-1.66-5.7,8.59,8.59,0,0,1,1.66-5.68,5.8,5.8,0,0,1,4.7-2,8.7,8.7,0,0,1,3,.52,11,11,0,0,1,2.84,1.66l1.28-2.81a9,9,0,0,0-3.17-1.85,11.94,11.94,0,0,0-4-.65,10.75,10.75,0,0,0-5.42,1.32,8.92,8.92,0,0,0-3.55,3.77,13.7,13.7,0,0,0,0,11.39,8.88,8.88,0,0,0,3.55,3.78,10.75,10.75,0,0,0,5.42,1.33m-14.48-.27V89.49H151.23V83.34H161v-3h-9.74V74.53h10.34v-3h-14.1V92.54Zm-25.09,0V74.65h6.87V71.48H125.76v3.17h6.87V92.54Z"/><rect class="cls-2" y="13.23" width="52.91" height="52.91"/><rect class="cls-2" x="26.46" y="39.68" width="52.91" height="52.91"/><rect class="cls-2" x="39.68" width="26.46" height="26.46"/><rect class="cls-2" x="68.78" y="82.01" width="21.16" height="21.16"/><rect class="cls-3" x="26.46" y="39.68" width="26.46" height="26.46"/><rect class="cls-3" x="39.68" y="13.23" width="13.23" height="13.23"/><rect class="cls-3" x="68.78" y="82.01" width="10.58" height="10.58"/></svg>