<svg width="48" height="48" viewBox="0 0 48 48" fill="none" xmlns="http://www.w3.org/2000/svg">
<circle cx="24" cy="24" r="24" fill="white"/>
<path d="M14.745 30H16.1541V24.7955H21.1996V23.5455H16.1541V19.6136H21.7223V18.3636H14.745V30ZM24.1357 30H25.4311V28.6591H25.5902C25.8857 29.1364 26.4538 30.1818 28.1357 30.1818C30.3175 30.1818 31.8402 28.4318 31.8402 25.6591C31.8402 22.9091 30.3175 21.1591 28.1129 21.1591C26.4084 21.1591 25.8857 22.2045 25.5902 22.6591H25.4766V18.3636H24.1357V30ZM25.4538 25.6364C25.4538 23.6818 26.3175 22.3636 27.9538 22.3636C29.6584 22.3636 30.4993 23.7955 30.4993 25.6364C30.4993 27.5 29.6357 28.9773 27.9538 28.9773C26.3402 28.9773 25.4538 27.6136 25.4538 25.6364Z" fill="#161A1D" fill-opacity="0.8"/>
</svg>
