<svg width="48" height="48" viewBox="0 0 48 48" fill="none" xmlns="http://www.w3.org/2000/svg">
<circle cx="24" cy="24" r="24" fill="white"/>
<path d="M18.826 18.3636H17.4169V30H18.826V18.3636ZM24.9922 33.4545C27.0831 33.4545 28.7649 32.5 28.7649 30.25V21.2727H27.4695V22.6591H27.3331C27.0376 22.2045 26.4922 21.1591 24.7876 21.1591C22.5831 21.1591 21.0604 22.9091 21.0604 25.5909C21.0604 28.3182 22.6513 29.8636 24.7649 29.8636C26.4695 29.8636 27.0149 28.8636 27.3104 28.3864H27.424V30.1591C27.424 31.6136 26.4013 32.2727 24.9922 32.2727C23.407 32.2727 22.8501 31.4375 22.4922 30.9545L21.424 31.7045C21.9695 32.6193 23.0433 33.4545 24.9922 33.4545ZM24.9467 28.6591C23.2649 28.6591 22.4013 27.3864 22.4013 25.5682C22.4013 23.7955 23.2422 22.3636 24.9467 22.3636C26.5831 22.3636 27.4467 23.6818 27.4467 25.5682C27.4467 27.5 26.5604 28.6591 24.9467 28.6591Z" fill="#161A1D" fill-opacity="0.8"/>
</svg>
