<svg width="64" height="64" viewBox="0 0 64 64" fill="none" xmlns="http://www.w3.org/2000/svg">
<rect width="64" height="64" rx="32" fill="#155BDA"/>
<path d="M32 22C30.1441 22.0021 28.3649 22.7403 27.0526 24.0526C25.7403 25.3649 25.0021 27.1441 25 29C25 34.353 31.036 40.45 31.293 40.707L32 41.414L32.707 40.707C32.964 40.45 39 34.353 39 29C38.9979 27.1441 38.2597 25.3649 36.9474 24.0526C35.6351 22.7403 33.8559 22.0021 32 22V22ZM32 38.533C30.471 36.825 27 32.553 27 29C27 27.6739 27.5268 26.4021 28.4645 25.4645C29.4021 24.5268 30.6739 24 32 24C33.3261 24 34.5979 24.5268 35.5355 25.4645C36.4732 26.4021 37 27.6739 37 29C37 32.546 33.527 36.823 32 38.533Z" fill="white"/>
<path d="M32 26C31.4067 26 30.8266 26.1759 30.3333 26.5056C29.8399 26.8352 29.4554 27.3038 29.2284 27.8519C29.0013 28.4001 28.9419 29.0033 29.0576 29.5853C29.1734 30.1672 29.4591 30.7018 29.8787 31.1213C30.2982 31.5409 30.8328 31.8266 31.4147 31.9424C31.9967 32.0581 32.5999 31.9987 33.1481 31.7716C33.6962 31.5446 34.1648 31.1601 34.4944 30.6667C34.8241 30.1734 35 29.5933 35 29C35 28.2044 34.6839 27.4413 34.1213 26.8787C33.5587 26.3161 32.7957 26 32 26ZM32 30C31.8022 30 31.6089 29.9414 31.4444 29.8315C31.28 29.7216 31.1518 29.5654 31.0761 29.3827C31.0004 29.2 30.9806 28.9989 31.0192 28.8049C31.0578 28.6109 31.153 28.4327 31.2929 28.2929C31.4327 28.153 31.6109 28.0578 31.8049 28.0192C31.9989 27.9806 32.2 28.0004 32.3827 28.0761C32.5654 28.1518 32.7216 28.28 32.8315 28.4444C32.9414 28.6089 33 28.8022 33 29C33 29.2652 32.8946 29.5196 32.7071 29.7071C32.5196 29.8946 32.2652 30 32 30Z" fill="white"/>
</svg>
