<svg width="64" height="64" viewBox="0 0 64 64" fill="none" xmlns="http://www.w3.org/2000/svg">
<rect width="64" height="64" rx="32" fill="#155BDA"/>
<path d="M42.1909 35.489L42.1529 34.662L35.6699 33.736L34.3549 36.31C32.9665 35.5283 31.6973 34.5517 30.5859 33.41C29.4315 32.3004 28.4478 31.0259 27.6669 29.628L30.4669 28.228L27.6669 21.708L26.9069 21.818C25.6198 21.9953 24.4273 22.593 23.5149 23.518C20.3419 26.687 21.5849 32.9 26.3429 37.657C29.3249 40.638 32.8759 42.239 35.8939 42.238C36.7375 42.2674 37.5784 42.1274 38.3669 41.8263C39.1554 41.5252 39.8756 41.0691 40.4849 40.485C41.1073 39.8208 41.5813 39.0319 41.8754 38.1705C42.1695 37.3092 42.2771 36.3951 42.1909 35.489ZM39.0709 39.071C36.7709 41.371 31.5899 40.071 27.7569 36.243C23.9239 32.415 22.6289 27.229 24.9289 24.929C25.3576 24.4945 25.8824 24.1667 26.4609 23.972L27.8809 27.285L26.7739 27.838C26.5341 27.9581 26.3208 28.125 26.1465 28.3288C25.9722 28.5326 25.8404 28.7693 25.7589 29.0248C25.6775 29.2803 25.648 29.5495 25.6722 29.8166C25.6964 30.0837 25.7738 30.3433 25.8999 30.58C26.7753 32.1482 27.876 33.5794 29.1669 34.828C30.4158 36.1045 31.8413 37.1952 33.3999 38.067C33.6402 38.1974 33.904 38.2785 34.1761 38.3054C34.4481 38.3324 34.7227 38.3047 34.9839 38.224C35.2393 38.1445 35.476 38.014 35.6795 37.8404C35.883 37.6668 36.0491 37.4537 36.1679 37.214L36.8149 35.92L40.1819 36.401C40.1435 37.3954 39.7492 38.3429 39.0709 39.071Z" fill="white"/>
</svg>
