<svg width="216" height="82" viewBox="0 0 216 82" fill="none" xmlns="http://www.w3.org/2000/svg">
<path fill-rule="evenodd" clip-rule="evenodd" d="M89.7039 29.715C88.8239 29.715 88.0519 29.787 87.3939 29.932C86.7339 30.078 86.4009 30.277 85.7779 30.532V53.584C86.8409 54.02 87.7419 54.237 89.0979 54.237C92.0679 54.237 93.7919 53.157 95.3309 50.995C96.8709 48.834 97.6409 45.772 97.6409 41.812C97.6409 37.889 96.9809 34.891 95.6609 32.82C94.3409 30.749 92.7099 29.715 89.7039 29.715V29.715ZM90.0939 57.181C89.3229 57.181 88.4969 57.107 87.6159 56.962C86.7349 56.817 86.3289 56.655 85.7779 56.472V68.461H80.6079V28.896C81.7119 28.279 83.0199 27.78 84.5299 27.398C86.0389 27.016 87.8249 26.826 89.8869 26.826C94.0479 26.826 97.3669 28.143 99.6689 30.776C101.969 33.412 103.121 37.016 103.121 41.595C103.121 46.426 101.955 50.233 99.6249 53.011C97.2929 55.791 94.0569 57.181 90.0949 57.181H90.0939ZM123.044 40.068C118.92 40.578 116.331 41.422 114.398 42.602C112.465 43.784 111.498 45.755 111.498 48.517C111.498 50.552 112.106 52.059 113.321 53.039C114.536 54.019 116.284 54.511 118.568 54.511C120.629 54.511 121.829 54.184 123.044 53.53V40.068ZM118.182 57.29C114.388 57.29 111.552 56.535 109.675 55.029C107.797 53.521 106.859 51.386 106.859 48.624C106.859 45.028 108.313 42.431 111.222 40.832C114.13 39.233 117.778 38.161 123.044 37.616L123.144 35.818C123.144 33.675 122.792 32.278 121.633 31.406C120.473 30.534 118.973 29.986 116.911 29.986C115.586 29.986 114.333 30.16 113.156 30.504C111.976 30.851 110.835 31.294 109.731 31.839L108.571 29.006C109.565 28.461 110.871 27.962 112.493 27.506C114.113 27.053 115.843 26.826 117.684 26.826C120.74 26.826 123.234 27.58 125.169 29.088C127.101 30.595 128.068 33.021 128.068 36.363V55.22C126.853 55.873 125.435 56.383 123.816 56.745C122.194 57.108 120.316 57.291 118.182 57.291V57.29ZM150.985 56.744V35.654C150.985 34.02 150.525 32.656 149.605 31.568C148.684 30.478 147.064 29.933 144.745 29.933C143.492 29.933 142.461 30.013 141.651 30.178C140.841 30.34 140.359 30.606 139.476 30.968V56.744H134.25V28.897C135.686 28.207 137.268 27.69 139 27.344C140.73 26.999 142.774 26.826 145.131 26.826C148.923 26.826 151.657 27.671 153.333 29.36C155.007 31.05 155.846 33.112 155.846 35.546V56.744H150.985ZM178.37 30.941C177.858 30.796 177.53 30.403 176.855 30.295C176.23 30.1899 175.598 30.1347 174.965 30.13C171.79 30.13 169.867 31.286 168.442 33.58C167.017 35.874 166.386 38.76 166.386 42.364C166.386 46.078 167.091 49.065 168.442 51.214C169.793 53.361 171.442 54.436 174.363 54.436C176.371 54.436 177.53 54.428 178.369 53.882L178.37 30.941ZM174.16 57.597C170 57.597 166.778 56.268 164.495 53.611C162.212 50.954 161.071 47.351 161.071 42.801C161.071 37.997 162.245 34.221 164.594 31.473C166.944 28.725 170.062 27.35 173.954 27.35C175.459 27.35 176.779 27.569 178.395 28.004V14.272H183.728V55.526C182.734 56.144 181.184 56.643 179.546 57.024C177.906 57.406 176.111 57.597 174.16 57.597V57.597ZM212.694 32.094C212.464 30.209 211.416 28.407 209.552 26.684C207.185 24.584 204.416 23.725 201.241 24.034C200.605 24.096 199.996 24.367 199.584 24.759C199.354 25.135 199.39 25.414 199.778 25.588C202.763 25.227 204.928 25.651 206.162 26.731C207.089 27.558 207.632 28.987 207.896 31.149C208.246 34.009 207.206 38.273 204.795 44.085C204.288 45.192 203.205 46.851 201.458 49.068C199.003 52.271 196.914 53.957 195.19 54.124C194.555 54.186 194.149 53.873 193.791 53.202C193.551 52.732 193.4 52.252 193.331 51.694C193.004 48.268 193.995 44.36 196.214 39.98C196.721 38.872 197.656 37.51 198.92 35.835C200.43 33.922 201.5 32.901 202.225 32.831C202.225 32.831 203.62 32.977 204.791 32.792C204.783 32.723 205.068 32.06 205.009 31.572C204.941 31.012 204.131 30.387 202.657 29.613C201.187 28.839 200.037 28.456 199.311 28.527C198.314 28.624 197.631 29.044 197.451 29.837C197.403 30.195 197.456 30.613 197.407 30.971C196.197 31.583 194.642 33.145 192.737 35.59C191.622 36.968 190.573 38.907 189.511 41.48C188.171 44.786 187.687 47.585 187.969 49.887C188.234 52.049 189.189 53.862 190.746 55.334C192.519 57.066 194.816 57.831 197.448 57.574C200.08 57.318 202.787 55.431 205.759 51.966C208.421 48.954 210.257 45.951 211.277 43.029C212.639 39.156 213.11 35.51 212.694 32.094" fill="black"/>
<path fill-rule="evenodd" clip-rule="evenodd" d="M21.523 22.579L16.696 19.788V14.208L21.523 11.418L26.35 14.208V19.788L21.523 22.579ZM21.523 38.557L16.696 35.767V30.187L21.523 27.397L26.35 30.187V35.767L21.523 38.557ZM21.523 54.535L16.696 51.745V46.165L21.523 43.375L26.35 46.165V51.745L21.523 54.535ZM21.523 69.944L16.696 67.152V61.574L21.523 58.783L26.35 61.573V67.152L21.523 69.944ZM48.343 22.579L43.516 19.788V14.208L48.343 11.418L53.172 14.208V19.788L48.343 22.579ZM48.343 38.557L43.516 35.767V30.187L48.343 27.397L53.172 30.187V35.767L48.343 38.557ZM48.343 54.535L43.516 51.745V46.165L48.343 43.375L53.172 46.165V51.745L48.343 54.535ZM48.343 69.944L43.516 67.152V61.574L48.343 58.783L53.172 61.573V67.152L48.343 69.944Z" fill="#42B02B"/>
<path fill-rule="evenodd" clip-rule="evenodd" d="M62.0379 30.568L57.2119 27.778V22.198L62.0379 19.408L66.8659 22.198V27.778L62.0379 30.568Z" fill="white"/>
<path fill-rule="evenodd" clip-rule="evenodd" d="M62.0379 46.547L57.2119 43.757V38.177L62.0379 35.386L66.8659 38.176V43.756L62.0379 46.547Z" fill="#42B02B"/>
<path fill-rule="evenodd" clip-rule="evenodd" d="M62.038 62.524L57.212 59.734V54.154L62.038 51.364L66.866 54.154V59.734L62.038 62.524ZM7.827 30.568L3 27.778V22.198L7.827 19.408L12.655 22.198V27.778L7.827 30.568Z" fill="white"/>
<path fill-rule="evenodd" clip-rule="evenodd" d="M7.827 46.547L3 43.757V38.177L7.827 35.386L12.655 38.176V43.756L7.827 46.547Z" fill="#42B02B"/>
<path fill-rule="evenodd" clip-rule="evenodd" d="M7.827 62.524L3 59.734V54.154L7.827 51.364L12.655 54.154V59.734L7.827 62.524ZM34.647 15.16L29.821 12.37V6.79L34.647 4L39.475 6.79V12.37L34.647 15.16Z" fill="white"/>
<path fill-rule="evenodd" clip-rule="evenodd" d="M34.647 30.569L29.821 27.778V22.198L34.647 19.408L39.475 22.198V27.778L34.647 30.569Z" fill="#42B02B"/>
<path fill-rule="evenodd" clip-rule="evenodd" d="M34.647 46.546L29.821 43.756V38.176L34.647 35.386L39.475 38.176V43.756L34.647 46.546Z" fill="white"/>
<path fill-rule="evenodd" clip-rule="evenodd" d="M34.647 61.955L29.821 59.164V53.584L34.647 50.794L39.475 53.584V59.164L34.647 61.955Z" fill="#42B02B"/>
<path fill-rule="evenodd" clip-rule="evenodd" d="M34.647 77.933L29.821 75.143V69.563L34.647 66.772L39.475 69.562V75.142L34.647 77.933Z" fill="white"/>
</svg>
