<svg id="Layer_1" data-name="Layer 1" xmlns="http://www.w3.org/2000/svg" viewBox="0 0 462.87 85.22">
  <defs>
    <style>
      .cls-1 {
        fill: #00263a;
      }
    </style>
  </defs>
  <g>
    <path class="cls-1" d="M88.13,47,76.54,12.57a8.1,8.1,0,0,0-6.13-5.36L34.2.14a8.2,8.2,0,0,0-7.6,2.57L2.05,30.23a8.07,8.07,0,0,0-1.62,8L12,72.65A8.12,8.12,0,0,0,18.14,78l36.21,7.06a7.88,7.88,0,0,0,1.54.14A8.1,8.1,0,0,0,62,82.52L86.51,55a8.1,8.1,0,0,0,1.62-8m-4.69,5.24L58.89,79.8a4.07,4.07,0,0,1-3.75,1.25L18.93,74a4,4,0,0,1-3-2.64L4.31,36.9A4,4,0,0,1,5.11,33L29.67,5.42a4,4,0,0,1,3-1.33,3.92,3.92,0,0,1,.76.08l36.21,7.07a4,4,0,0,1,3,2.65L84.26,48.33a4,4,0,0,1-.82,3.94"/>
    <g>
      <g>
        <path class="cls-1" d="M122.64,34.31a1,1,0,0,1-.72.28h-8.64c-.29,0-.43.14-.43.41V54.53a6.06,6.06,0,0,0,1.4,4.45,6.15,6.15,0,0,0,4.45,1.38h2.54a1,1,0,0,1,.72.28.92.92,0,0,1,.3.69v6.08q0,.9-1,1l-4.41.08q-6.69,0-10-2.18t-3.39-8.27V35c0-.27-.14-.41-.43-.41H98.2a1,1,0,0,1-.72-.28.92.92,0,0,1-.3-.69V28a.92.92,0,0,1,.3-.69A1,1,0,0,1,98.2,27H103c.29,0,.43-.13.43-.4V17.09a.94.94,0,0,1,.29-.69,1,1,0,0,1,.73-.28h7.37a1,1,0,0,1,.72.28.94.94,0,0,1,.29.69v9.48c0,.27.14.4.43.4h8.64a1,1,0,0,1,.72.29.92.92,0,0,1,.3.69v5.67A.92.92,0,0,1,122.64,34.31Z"/>
        <path class="cls-1" d="M164.87,47.56l-.08,2.51c0,.65-.34,1-1,1H137.25a.37.37,0,0,0-.42.41,11.14,11.14,0,0,0,.76,3.64q2,5.83,9.92,5.92a10.82,10.82,0,0,0,9.15-4.54,1,1,0,0,1,.84-.49.86.86,0,0,1,.6.25l5.25,4.13a.84.84,0,0,1,.25,1.3,17.23,17.23,0,0,1-7,5.51,23.67,23.67,0,0,1-9.7,1.94,21,21,0,0,1-11.22-2.83,16.47,16.47,0,0,1-6.74-8Q127,54,127,46.18a23.62,23.62,0,0,1,1-7.62,16.24,16.24,0,0,1,6.4-9,19.23,19.23,0,0,1,11.31-3.28q16.68,0,18.81,16.69A28.35,28.35,0,0,1,164.87,47.56ZM140.52,35.93a7.94,7.94,0,0,0-2.93,4.17,13.8,13.8,0,0,0-.68,3.57c-.11.27,0,.4.34.4h17.2c.28,0,.43-.13.43-.4a15.54,15.54,0,0,0-.51-3.08,7.81,7.81,0,0,0-3-4.54,9.4,9.4,0,0,0-5.63-1.62A8.66,8.66,0,0,0,140.52,35.93Z"/>
        <path class="cls-1" d="M201.94,30.22q4.11,3.89,4.11,10.61V67.41a.92.92,0,0,1-.3.69,1,1,0,0,1-.72.28h-7.79a1,1,0,0,1-.72-.28.92.92,0,0,1-.3-.69V42.78a8.38,8.38,0,0,0-2.2-6,7.71,7.71,0,0,0-5.85-2.31,7.93,7.93,0,0,0-5.89,2.27,8.17,8.17,0,0,0-2.24,6V67.41a.92.92,0,0,1-.3.69,1,1,0,0,1-.72.28h-7.79a1,1,0,0,1-.72-.28.92.92,0,0,1-.3-.69V28a.92.92,0,0,1,.3-.69,1,1,0,0,1,.72-.29H179a1,1,0,0,1,.72.29.92.92,0,0,1,.3.69v2.59a.31.31,0,0,0,.17.32c.11.06.2,0,.25-.16q3.48-4.38,10.51-4.37Q197.83,26.33,201.94,30.22Z"/>
        <path class="cls-1" d="M238.58,28.11a14.66,14.66,0,0,1,6.27,4.9,12,12,0,0,1,2.21,7.09V67.41a.92.92,0,0,1-.3.69,1,1,0,0,1-.72.28h-7.8a1,1,0,0,1-.72-.28.94.94,0,0,1-.29-.69V64.82c0-.16-.06-.26-.17-.29a.37.37,0,0,0-.34.13q-4.16,4.36-12,4.37A16.94,16.94,0,0,1,214.22,66q-4.11-3.08-4.1-9.16A11.66,11.66,0,0,1,214.73,47q4.62-3.53,13-3.53h9.06c.29,0,.43-.13.43-.4v-2a6.24,6.24,0,0,0-1.95-4.9q-2-1.74-5.85-1.74a10.81,10.81,0,0,0-5.21,1.09,4.81,4.81,0,0,0-2.5,3,.94.94,0,0,1-1.18.81l-8.22-1a1.87,1.87,0,0,1-.72-.28.45.45,0,0,1-.21-.53q.68-5,5.55-8.1t12.24-3.16A23.18,23.18,0,0,1,238.58,28.11Zm-4.32,31.36a6.34,6.34,0,0,0,3-5.35V50.31c0-.27-.14-.4-.43-.4h-7.11a13.28,13.28,0,0,0-7.08,1.62A5.15,5.15,0,0,0,220,56.15a4.63,4.63,0,0,0,2,4,8.66,8.66,0,0,0,5.12,1.42A12,12,0,0,0,234.26,59.47Z"/>
        <path class="cls-1" d="M291.2,47.56a29.38,29.38,0,0,1-1.61,10.13A16.15,16.15,0,0,1,273.4,69a12.45,12.45,0,0,1-9.74-4.29c-.11-.17-.22-.22-.34-.17a.35.35,0,0,0-.17.33v2.51a.94.94,0,0,1-.29.69,1,1,0,0,1-.72.28h-7.8a1,1,0,0,1-.72-.28.92.92,0,0,1-.3-.69V12.63a.92.92,0,0,1,.3-.69,1,1,0,0,1,.72-.28h7.8a1,1,0,0,1,.72.28.94.94,0,0,1,.29.69V30.22a.32.32,0,0,0,.17.32.29.29,0,0,0,.34-.08,12.23,12.23,0,0,1,9.66-4.13,17.21,17.21,0,0,1,10.38,3,17.42,17.42,0,0,1,6.06,8.35A32.56,32.56,0,0,1,291.2,47.56Zm-10.09.16q0-6.33-2.54-9.89a7.62,7.62,0,0,0-6.78-3.4A7.05,7.05,0,0,0,265.44,38c-1.41,2.22-2.12,5.43-2.12,9.65s.65,7.29,1.95,9.4a7.14,7.14,0,0,0,6.61,3.89,8.72,8.72,0,0,0,4.24-1,7.56,7.56,0,0,0,3-2.87C280.44,54.77,281.11,51.66,281.11,47.72Z"/>
        <path class="cls-1" d="M297.25,68.1a.91.91,0,0,1-.29-.69V12.63a.91.91,0,0,1,.29-.69,1,1,0,0,1,.72-.28h7.8a1,1,0,0,1,.72.28.92.92,0,0,1,.3.69V67.41a.92.92,0,0,1-.3.69,1,1,0,0,1-.72.28H298A1,1,0,0,1,297.25,68.1Z"/>
        <path class="cls-1" d="M350.42,47.56l-.09,2.51c0,.65-.33,1-1,1H322.8a.37.37,0,0,0-.42.41,10.88,10.88,0,0,0,.76,3.64q2,5.83,9.91,5.92a10.82,10.82,0,0,0,9.15-4.54,1,1,0,0,1,.85-.49.85.85,0,0,1,.59.25l5.25,4.13a.85.85,0,0,1,.26,1.3,17.23,17.23,0,0,1-7,5.51,23.67,23.67,0,0,1-9.7,1.94,21.07,21.07,0,0,1-11.23-2.83,16.45,16.45,0,0,1-6.73-8q-2-4.36-1.95-12.15a23.93,23.93,0,0,1,1-7.62,16.29,16.29,0,0,1,6.4-9,19.25,19.25,0,0,1,11.31-3.28Q348,26.33,350.08,43A27.18,27.18,0,0,1,350.42,47.56ZM326.06,35.93a7.92,7.92,0,0,0-2.92,4.17,13.39,13.39,0,0,0-.68,3.57c-.11.27,0,.4.34.4H340c.28,0,.42-.13.42-.4a14.19,14.19,0,0,0-.51-3.08,7.8,7.8,0,0,0-3-4.54,9.41,9.41,0,0,0-5.64-1.62A8.66,8.66,0,0,0,326.06,35.93Z"/>
        <path class="cls-1" d="M357.45,66.92a5.89,5.89,0,0,1,0-8.26A6,6,0,0,1,361.77,57a5.85,5.85,0,0,1,4.28,1.62,5.55,5.55,0,0,1,1.65,4.13A5.45,5.45,0,0,1,366,66.92a5.85,5.85,0,0,1-4.24,1.62A6,6,0,0,1,357.45,66.92Z"/>
        <path class="cls-1" d="M401.17,28.11a14.66,14.66,0,0,1,6.27,4.9,12,12,0,0,1,2.2,7.09V67.41a.92.92,0,0,1-.3.69,1,1,0,0,1-.72.28h-7.79a1,1,0,0,1-.72-.28.92.92,0,0,1-.3-.69V64.82c0-.16-.05-.26-.17-.29a.39.39,0,0,0-.34.13q-4.14,4.36-12,4.37A16.93,16.93,0,0,1,376.81,66q-4.11-3.08-4.11-9.16A11.67,11.67,0,0,1,377.32,47q4.62-3.53,13-3.53h9.07c.28,0,.42-.13.42-.4v-2a6.24,6.24,0,0,0-1.95-4.9c-1.3-1.16-3.24-1.74-5.84-1.74a10.75,10.75,0,0,0-5.21,1.09,4.81,4.81,0,0,0-2.5,3,1,1,0,0,1-1.19.81l-8.22-1a1.94,1.94,0,0,1-.72-.28.45.45,0,0,1-.21-.53q.67-5,5.55-8.1t12.24-3.16A23.23,23.23,0,0,1,401.17,28.11Zm-4.32,31.36a6.36,6.36,0,0,0,3-5.35V50.31c0-.27-.14-.4-.42-.4h-7.12a13.24,13.24,0,0,0-7.07,1.62,5.14,5.14,0,0,0-2.59,4.62,4.65,4.65,0,0,0,2,4,8.69,8.69,0,0,0,5.13,1.42A12,12,0,0,0,396.85,59.47Z"/>
        <path class="cls-1" d="M443,11.94a1,1,0,0,1,.72-.28h7.79a1,1,0,0,1,.72.28.92.92,0,0,1,.3.69V67.41a.92.92,0,0,1-.3.69,1,1,0,0,1-.72.28H443.7a1,1,0,0,1-.72-.28.92.92,0,0,1-.3-.69V65a.31.31,0,0,0-.17-.32c-.11-.06-.22,0-.34.16A12.37,12.37,0,0,1,432.43,69a16.12,16.12,0,0,1-16.18-11.34,31.63,31.63,0,0,1-1.53-10.13,30.18,30.18,0,0,1,1.44-9.89,16.85,16.85,0,0,1,6-8.35,17.4,17.4,0,0,1,10.42-3,12.41,12.41,0,0,1,9.57,4.05.36.36,0,0,0,.34.12c.12,0,.17-.12.17-.28V12.63A.92.92,0,0,1,443,11.94Zm-.38,35.7c0-4.22-.71-7.43-2.12-9.65A7.25,7.25,0,0,0,434,34.43a7.9,7.9,0,0,0-6.78,3.4q-2.53,3.57-2.54,9.89a19.06,19.06,0,0,0,2,9.32A7.89,7.89,0,0,0,434,60.93,7.44,7.44,0,0,0,440.65,57Q442.6,53.71,442.6,47.64Z"/>
      </g>
      <g>
        <path class="cls-1" d="M458.8,11.79v.59a.07.07,0,0,1-.07.07h-1.08a0,0,0,0,0,0,0v3.37a.07.07,0,0,1-.07.08h-.71a.07.07,0,0,1-.07-.08V12.48a0,0,0,0,0,0,0h-1a.07.07,0,0,1-.07-.07v-.59a.07.07,0,0,1,.07-.08h3A.07.07,0,0,1,458.8,11.79Z"/>
        <path class="cls-1" d="M462.1,11.71h.7a.07.07,0,0,1,.07.08v4.06a.07.07,0,0,1-.07.08h-.7a.07.07,0,0,1-.07-.08V13.21s0,0,0,0l-.64,1.05a.1.1,0,0,1-.08.05h-.35a.11.11,0,0,1-.09-.05l-.64-1s0,0,0,0v2.63a.07.07,0,0,1-.07.08h-.7a.07.07,0,0,1-.07-.08V11.79a.07.07,0,0,1,.07-.08h.7a.11.11,0,0,1,.09,0l.9,1.43s0,0,0,0l.9-1.43A.11.11,0,0,1,462.1,11.71Z"/>
      </g>
    </g>
  </g>
</svg>
