<?xml version="1.0" encoding="utf-8"?>
<!-- Generator: Adobe Illustrator 25.2.1, SVG Export Plug-In . SVG Version: 6.00 Build 0)  -->
<svg version="1.1" id="Layer_1" xmlns="http://www.w3.org/2000/svg" xmlns:xlink="http://www.w3.org/1999/xlink" x="0px" y="0px"
	 viewBox="0 0 576.4 116.6" style="enable-background:new 0 0 576.4 116.6;" xml:space="preserve">
<style type="text/css">
	.st0{fill:#041E42;}
</style>
<g>
	<path class="st0" d="M120.5,64.3l-15.8-47.1c-1.3-3.8-4.5-6.6-8.4-7.3L46.8,0.2C43-0.5,39,0.8,36.4,3.7L2.8,41.4
		c-2.6,3-3.5,7.1-2.2,10.9l15.9,47.1c1.3,3.8,4.5,6.6,8.4,7.3l49.5,9.7c0.7,0.1,1.4,0.2,2.1,0.2c3.2,0,6.2-1.3,8.3-3.7l33.6-37.6
		C120.9,72.2,121.7,68.1,120.5,64.3 M114,71.5l-33.5,37.6c-1.3,1.4-3.2,2.1-5.1,1.7l-49.5-9.7c-1.9-0.4-3.5-1.7-4.1-3.6l-15.9-47
		c-0.6-1.9-0.2-3.9,1.1-5.4L40.6,7.5c1-1.2,2.5-1.8,4.1-1.8c0.3,0,0.7,0,1,0.1l49.5,9.6c1.9,0.4,3.5,1.8,4.1,3.6l15.9,47.1
		C115.8,68,115.4,70,114,71.5"/>
	<path class="st0" d="M167.1,47.4c-0.2,0.2-0.6,0.4-0.9,0.4h-10.8c-0.3,0-0.5,0.1-0.5,0.4v0.1v25.5c0,2.7,0.6,4.6,1.8,5.8
		s3,1.8,5.6,1.8h3.2c0.3,0,0.7,0.1,0.9,0.4c0.2,0.2,0.4,0.6,0.4,0.9v7.9c0,0.7-0.5,1.3-1.2,1.4l-5.5,0.1c-5.6,0-9.7-1-12.5-2.9
		s-4.2-5.5-4.2-10.8V48.3c0-0.3-0.1-0.5-0.4-0.5h-0.1h-6c-0.7,0-1.3-0.6-1.3-1.2v-7.4c0-0.3,0.1-0.7,0.4-0.9
		c0.2-0.2,0.6-0.4,0.9-0.4h6c0.3,0,0.5-0.1,0.5-0.4v-0.1V24.9c0-0.3,0.1-0.7,0.4-0.9c0.2-0.2,0.6-0.4,0.9-0.4h9.2
		c0.3,0,0.7,0.1,0.9,0.4c0.2,0.2,0.4,0.6,0.4,0.9v12.4c0,0.3,0.1,0.5,0.4,0.5h0.1h10.8c0.3,0,0.7,0.1,0.9,0.4
		c0.2,0.2,0.4,0.6,0.4,0.9v7.4C167.5,46.9,167.3,47.2,167.1,47.4L167.1,47.4z"/>
	<path class="st0" d="M219.9,64.7l-0.1,3.3c0.1,0.6-0.3,1.2-0.9,1.3c-0.1,0-0.2,0-0.3,0h-33.2c-0.3,0-0.5,0.1-0.5,0.4v0.2
		c0.1,1.6,0.4,3.2,1,4.8c1.7,5.1,5.8,7.7,12.4,7.7c4.6,0.1,8.9-2.1,11.4-5.9c0.2-0.4,0.6-0.6,1-0.6c0.3,0,0.5,0.1,0.7,0.3l6.6,5.4
		c0.5,0.3,0.7,1,0.4,1.5c0,0.1-0.1,0.1-0.1,0.2c-2.2,3.1-5.2,5.6-8.7,7.2c-3.8,1.7-7.9,2.6-12.1,2.5c-4.9,0.2-9.8-1.1-14-3.7
		c-3.8-2.5-6.8-6.1-8.4-10.4c-1.6-3.8-2.4-9.1-2.4-15.9c-0.1-3.4,0.3-6.8,1.3-10c1.2-4.7,4.1-8.8,8-11.7c4.1-2.9,9.1-4.4,14.1-4.3
		c13.9,0,21.7,7.3,23.5,21.8C219.7,60.7,219.9,62.7,219.9,64.7z M189.4,49.6c-1.8,1.4-3,3.3-3.6,5.4c-0.5,1.5-0.8,3.1-0.9,4.7
		c-0.1,0.3,0,0.5,0.4,0.5h21.5c0.3,0,0.5-0.1,0.5-0.4v-0.1c-0.1-1.4-0.3-2.7-0.6-4c-0.5-2.4-1.9-4.5-3.8-5.9c-2-1.5-4.5-2.2-7-2.1
		C193.6,47.5,191.3,48.2,189.4,49.6L189.4,49.6z"/>
	<path class="st0" d="M266.2,42.1c3.4,3.4,5.1,8,5.1,13.9v34.7c0,0.3-0.1,0.7-0.4,0.9c-0.2,0.2-0.6,0.4-0.9,0.4h-9.7
		c-0.3,0-0.7-0.1-0.9-0.4c-0.2-0.2-0.4-0.6-0.4-0.9V58.5c0.1-2.9-0.8-5.7-2.8-7.9c-1.9-2-4.5-3.1-7.3-3c-2.8-0.1-5.5,1-7.4,3
		c-1.9,2.1-2.9,4.9-2.8,7.8v32.3c0,0.7-0.6,1.3-1.2,1.3h-9.7c-0.3,0-0.7-0.1-0.9-0.4c-0.2-0.2-0.4-0.6-0.4-0.9V39.1
		c0-0.3,0.1-0.7,0.4-0.9c0.2-0.2,0.6-0.4,0.9-0.4h9.7c0.3,0,0.7,0.1,0.9,0.4c0.2,0.2,0.4,0.6,0.4,0.9v3.4c0,0.2,0.1,0.3,0.2,0.4
		s0.2,0,0.3-0.2c2.9-3.8,7.3-5.7,13.1-5.7S262.8,38.7,266.2,42.1z"/>
	<path class="st0" d="M312,39.3c3.1,1.4,5.9,3.6,7.8,6.4c1.8,2.7,2.8,6,2.8,9.3v35.7c0,0.7-0.6,1.3-1.2,1.3h-9.7
		c-0.3,0-0.7-0.1-0.9-0.4c-0.2-0.2-0.4-0.6-0.4-0.9v-3.4c0-0.2-0.1-0.3-0.2-0.4c-0.2,0-0.3,0-0.4,0.2c-3.5,3.8-8.5,5.7-15,5.7
		c-5.3,0-9.6-1.3-13.1-4c-3.4-2.7-5.1-6.7-5.1-12c0-5.5,1.9-9.8,5.8-12.9c3.8-3.1,9.3-4.6,16.3-4.6h11.1c0.3,0,0.5-0.1,0.5-0.4v-0.1
		v-2.5c0.1-2.4-0.7-4.7-2.4-6.4c-1.6-1.5-4.1-2.3-7.3-2.3c-2.3-0.1-4.5,0.4-6.5,1.4c-1.6,0.8-2.7,2.3-3.1,4
		c-0.2,0.8-0.7,1.2-1.5,1.1l-10.3-1.3c-0.3-0.1-0.6-0.2-0.9-0.4c-0.2-0.1-0.3-0.4-0.3-0.7c0.6-4.3,2.9-7.8,6.9-10.6
		c4.1-2.7,9.2-4.1,15.3-4.1C304.3,36.9,308.3,37.7,312,39.3L312,39.3z M306.6,80.3c2.3-1.6,3.7-4.2,3.7-7v-5c0-0.3-0.1-0.5-0.4-0.5
		h-0.1h-8.9c-3.7,0-6.7,0.7-8.8,2.1c-2.1,1.3-3.3,3.6-3.2,6c-0.1,2.1,0.8,4,2.5,5.2c1.9,1.3,4.1,2,6.4,1.8
		C300.9,83.1,304,82.2,306.6,80.3z"/>
	<path class="st0" d="M377.8,64.7c0.1,4.5-0.6,9-2,13.2c-1.3,4.3-3.9,8.1-7.5,10.9c-3.7,2.7-8.2,4.1-12.7,3.9
		c-4.7,0.1-9.2-2-12.2-5.6c-0.1-0.2-0.3-0.3-0.4-0.2s-0.2,0.3-0.2,0.4v3.3c0,0.7-0.6,1.3-1.2,1.3h-9.8c-0.3,0-0.7-0.1-0.9-0.4
		c-0.2-0.2-0.4-0.6-0.4-0.9V19.1c0-0.7,0.6-1.3,1.3-1.3h9.7c0.3,0,0.7,0.1,0.9,0.4c0.2,0.2,0.4,0.6,0.4,0.9v23
		c0,0.2,0.1,0.3,0.2,0.4s0.3,0,0.4-0.1c3-3.6,7.4-5.6,12.1-5.4c5.2,0,9.6,1.3,13,3.9c3.6,2.8,6.2,6.6,7.6,10.9
		C377.3,56,377.9,60.4,377.8,64.7L377.8,64.7z M365.2,65c0-5.5-1.1-9.8-3.2-12.9c-1.8-2.9-5.1-4.6-8.5-4.4c-3.3-0.1-6.4,1.7-7.9,4.7
		c-1.8,2.9-2.6,7.1-2.6,12.6s0.8,9.6,2.4,12.3c1.5,3.2,4.7,5.2,8.3,5.1c1.8,0,3.7-0.4,5.3-1.3s2.8-2.2,3.7-3.8
		C364.3,74.2,365.2,70.1,365.2,65L365.2,65z"/>
	<path class="st0" d="M385.3,91.6c-0.2-0.2-0.4-0.6-0.4-0.9V19.1c0-0.3,0.1-0.7,0.4-0.9c0.2-0.2,0.6-0.4,0.9-0.4h9.7
		c0.3,0,0.7,0.1,0.9,0.4c0.2,0.2,0.4,0.6,0.4,0.9v71.6c0,0.7-0.6,1.3-1.2,1.3h-9.7C385.9,92,385.6,91.8,385.3,91.6L385.3,91.6z"/>
	<path class="st0" d="M451.8,64.7l-0.1,3.3c0.1,0.6-0.3,1.2-0.9,1.3c-0.1,0-0.2,0-0.3,0h-33.2c-0.3,0-0.5,0.1-0.5,0.4v0.2
		c0.1,1.6,0.4,3.2,1,4.8c1.7,5.1,5.8,7.7,12.4,7.7c4.6,0.1,8.9-2.1,11.4-5.9c0.2-0.4,0.6-0.6,1-0.6c0.3,0,0.6,0.1,0.8,0.3l6.6,5.4
		c0.5,0.3,0.7,1,0.4,1.5c0,0.1-0.1,0.1-0.1,0.2c-2.2,3.1-5.2,5.6-8.7,7.2c-3.8,1.7-7.9,2.6-12.1,2.5c-4.9,0.2-9.8-1.1-14-3.7
		c-3.8-2.5-6.8-6.1-8.4-10.4c-1.6-3.8-2.4-9.1-2.4-15.9c-0.1-3.4,0.3-6.8,1.3-10c1.3-4.7,4.1-8.8,8-11.7c4.1-2.9,9-4.4,14.1-4.2
		c13.9,0,21.7,7.3,23.5,21.8C451.6,60.8,451.8,62.8,451.8,64.7L451.8,64.7z M421.3,49.6c-1.8,1.4-3.1,3.3-3.6,5.4
		c-0.5,1.5-0.8,3.1-0.9,4.7c-0.1,0.3,0,0.5,0.4,0.5h21.5c0.3,0,0.5-0.1,0.5-0.4v-0.1c-0.1-1.4-0.3-2.7-0.6-4
		c-0.5-2.4-1.9-4.5-3.8-5.9c-2.1-1.5-4.5-2.3-7.1-2.2C425.5,47.5,423.2,48.2,421.3,49.6z"/>
	<path class="st0" d="M460.6,90c-3-2.9-3.1-7.7-0.2-10.6c1.5-1.5,3.5-2.3,5.6-2.3c2-0.1,3.9,0.7,5.4,2.1c1.4,1.4,2.1,3.4,2.1,5.4
		c0.1,2-0.7,4-2.1,5.4s-3.3,2.2-5.3,2.1C463.9,92.2,462,91.5,460.6,90z"/>
	<path class="st0" d="M491.4,88.6c-4-2.9-7-7-8.4-11.8c-1.2-3.9-1.8-8-1.8-12.1c-0.1-4.1,0.5-8.2,1.7-12.1c1.4-4.7,4.4-8.8,8.5-11.5
		c4.3-2.8,9.4-4.3,14.5-4.1c5-0.1,9.8,1.3,13.9,4.1c4,2.8,6.9,6.8,8.3,11.5c1.3,3.9,2,7.9,1.9,12c0.1,4.1-0.6,8.2-1.8,12.1
		c-1.4,4.7-4.4,8.9-8.4,11.8c-4.1,2.9-9,4.4-14,4.3C500.7,93,495.6,91.5,491.4,88.6L491.4,88.6z M512.5,80c2-1.6,3.4-3.8,4.1-6.2
		c0.8-2.9,1.1-5.9,1.1-8.9c0.1-3-0.3-6-1.1-8.9c-0.6-2.4-2-4.6-4-6.2c-2-1.5-4.5-2.3-7-2.2c-2.4-0.1-4.8,0.7-6.8,2.1
		c-2,1.6-3.4,3.8-4.1,6.2c-0.8,2.9-1.1,5.9-1.1,8.9c-0.1,3,0.3,6,1.1,8.9c0.6,2.5,2.1,4.7,4.1,6.2s4.5,2.3,7,2.2
		C508.2,82.3,510.6,81.5,512.5,80z"/>
	<path class="st0" d="M565.4,47.4c-0.2,0.2-0.6,0.4-0.9,0.4h-10.8c-0.3,0-0.5,0.1-0.5,0.4v0.1v25.5c0,2.7,0.6,4.6,1.8,5.8
		s3,1.8,5.6,1.8h3.2c0.7,0,1.3,0.6,1.3,1.3v7.9c0,0.7-0.5,1.3-1.2,1.4l-5.5,0.1c-5.6,0-9.7-1-12.5-2.9s-4.2-5.5-4.2-10.8V48.3
		c0-0.3-0.1-0.5-0.4-0.5h-0.1h-6c-0.7,0-1.3-0.6-1.3-1.2v-7.4c0-0.3,0.1-0.7,0.4-0.9c0.2-0.2,0.6-0.4,0.9-0.4h6
		c0.3,0,0.5-0.1,0.5-0.4v-0.1V24.9c0-0.3,0.1-0.7,0.4-0.9c0.2-0.2,0.6-0.4,0.9-0.4h9.2c0.7,0,1.3,0.6,1.3,1.2v12.4
		c0,0.3,0.1,0.5,0.4,0.5h0.1h10.8c0.3,0,0.7,0.1,0.9,0.4c0.2,0.2,0.4,0.6,0.4,0.9v7.4C565.8,46.9,565.7,47.2,565.4,47.4L565.4,47.4z
		"/>
	<path class="st0" d="M565,18v-0.4c0-0.1,0.1-0.2,0.1-0.2h4.5c0.1,0,0.2,0.1,0.2,0.1v0.4c0,0.1-0.1,0.2-0.1,0.2h-1.8
		c-0.1,0-0.1,0-0.1,0.1V24c0,0.1-0.1,0.2-0.2,0.2h-0.5c-0.1,0-0.2-0.1-0.2-0.1v-5.8c0,0,0-0.1-0.1-0.1h-1.7
		C565.1,18.2,565,18.1,565,18L565,18z M575.7,17.4h0.5c0.1,0,0.2,0.1,0.2,0.2V24c0,0.1-0.1,0.2-0.2,0.2h-0.5c-0.1,0-0.2-0.1-0.2-0.2
		v-5v-0.1l-1.3,2c0,0.1-0.1,0.1-0.2,0.1h-0.2c-0.1,0-0.2,0-0.2-0.1l-1.3-2V19v5c0,0.1-0.1,0.2-0.2,0.2h-0.5c-0.1,0-0.2-0.1-0.2-0.2
		v-6.4c0-0.1,0.1-0.2,0.2-0.2h0.5c0.1,0,0.2,0,0.2,0.1l1.5,2.4h0.1c0,0,0,0,0.1,0l1.6-2.4C575.6,17.5,575.6,17.4,575.7,17.4
		L575.7,17.4z"/>
</g>
</svg>
